<svg xmlns="http://www.w3.org/2000/svg" version="1.1" style="display: block;" preserveAspectRatio="none" viewBox="116.53 125.57 1734.32 1734.32"><path fill="transparent" d="M939.503 126.72c478.157-24.395 885.597 343.347 910.177 821.489 24.58 478.141-343 885.731-821.13 910.501-478.401 24.78-886.263-343.05-910.859-821.46-24.596-478.404 343.394-886.121 821.812-910.53"/><path fill="white" d="M1011 199.409c11.15 6.715 17.85 9.058 28.5 18.477 20.21 17.874 45.51 39.611 61.45 61.171 36.58 48.81 54.13 102.785 64.99 161.921 9.88 53.846 7.6 99.569-5.82 152.746-12.08 47.901-36.1 93.488-48.79 141.328-7.29 27.483-5.3 68.797-4.58 97.456 2.99 32.516 18.74 79.773 36.61 106.944 6.4 9.142 15.3 16.569 23.79 23.511-2.31-43.041 5.37-71.82 17.42-113.384 18.53-63.275 55.76-134.492 94.82-187.258 40.19-54.308 117.86-114.267 177.23-147.439a452 452 0 0 1 32.58-16.641c9.64-4.362 66.4-28.211 70.68-18.678-.58 4.179-29.33 49.508-34.32 57.657-38.48 62.843-39.17 154.235-30.71 225.32 9.37 78.668 57.71 164.314 103.59 227.703 9.43 13.037 21.42 25.977 31.45 39.077a314.7 314.7 0 0 1 53.08 108.4c4.21 15.3 5.11 28.73 7.46 44.69 17.66 119.61-38.46 266.82-156.92 313.32-12.86 5.05-27.33 5.8-40.71 9.43l-1.3.36c12.3-9.65 53.5-51.11 62.29-63.61 28.18-40.11 51.88-96.58 65.32-144.42 12.72-45.26 8.07-114.23-3.87-159.63-16.33-48.74-58.93-98.89-89.06-140.072a706 706 0 0 1-33.54-51.326c-67.21-114.578-93.42-224.343-59.54-354.646-60.21 26.508-112.48 95.094-144.17 151.536-35.3 62.93-49.78 138.879-47.17 210.601.71 19.797 17.35 71.517 25.21 89.737 11.81 27.38 24.37 51.1 31.67 81.1 2.83 11.6 9.87 29.09 13.65 41.58 4.12 19.05 8.63 38.83 10.31 58.27 5.24 60.6-15.42 124.06-39.7 178.51-35.03 77.54-109.46 117.14-186.02 143.82-25.5 10.59-49.72 11.11-76.19 13.77-44.678 4.48-77.285.65-120.848-6.26-74.219-11.76-137.434-33.74-189.047-92.07-24.975-28.23-42.162-50.97-52.647-88.13-16.089-40.92-10.163-85.42-11.641-128.56.315-38.77-6.045-77.06-9.255-115.39-8.502-105.29-75.183-224.671-181.215-256.591-7.659-2.306-18.873-11.652-26.412-8.993-1.004 2.091-1.441 2.668-.633 5.228 7.102 22.513 10.836 45.715 14.524 69.046 3.077 19.46 5 41.623 2.429 61.25-6.859 52.37-21.086 104.32-38.075 154.24-5.626 16.49-10.223 33.85-16.311 50.07-9.546 25.44-21.279 48.04-27.783 74.78-5.138 21.12-10.614 48.16-8.166 69.95 5.521 49.14 38.754 98.94 71.742 134.78 13.954 15.16 43.164 43.79 52.87 60.6l.746 1.31c-20.073 1.12-45.534-4.97-64.398-11.26-40.597-13.56-77.28-62.6-95.059-100.12-26.167-54.28-32.81-157.72-4.451-211.56 33.666-63.91 60.681-114.47 65.168-189.25 2.726-45.442 5.288-92.382-7.639-137.663-7.936-27.799-17.983-56.211-29.592-82.828-4.17-9.841-10.11-19.105-14.585-28.879l-.495-1.097c10.943.131 22.455 2.224 33.362 3.417 93.719 10.256 173.765 65.077 251.519 113.96 10.052 6.32 20.518 11.703 31.148 16.965.275-10.187-.526-21.233-.967-31.691-4.419-104.794 46.023-199.077 122.253-268.055 23.889-21.616 50.386-38.043 74.174-60.683 36.12-34.376 63.091-68.528 88.465-111.325a519.3 519.3 0 0 0 60.7-157.39c7.883-39.658 2.344-49.628 20.429-89.132"/><path fill="black" d="M1055.67 305.03c1.79.298 5.25.869 6.51 2.044 14.7 13.716 25.2 48.706 32.2 66.444 10.77 26.349 12.73 56.076 18.33 83.403 16.19 78.96-4.66 155.808-35.85 228.158-10.67 24.763-22.61 50.221-29.01 76.805-5 20.828-13.68 42.956-13.65 64.761 1.58 50.006 32.89 96.23 61.47 135.375 10.66 14.597 18.83 25.615 30.75 38.78 16.04 17.83 36.65 31.35 53.15 48.59 40.53 42.33 68.02 107.86 76.2 164.99 9.17 64.11-26.05 158.83-67.72 207.59-90.41 105.78-292.947 99.51-396.732 16.35-23.364-18.83-51.021-55.46-58.151-84.3-10.951-45.6-12.747-94.75-2.543-140.61 3.317-11.05 10.318-21.81 15.558-31.79 13.224-25.2 33.677-44.57 56.322-61.29 11.189-8.01 22.862-19.12 34.876-25.6 48.794-26.29 101.861-35.17 156.95-29.21 41.61 4.5 75.4 25.29 100.48 59.34 7.1 9.64 15.35 18.04 21.17 28.95 12.65 23.74 18.1 50.67 20.79 77.22 3.1 40.82-16.05 77.04-41.95 107.13-14.37 16.69-26.96 23.73-45.57 34.23-23.51 13.64-45.21 17.98-71.867 20.39-77.379 7.01-154.252-75.01-99.149-146.62 28.951-37.19 91.338-62.8 131.356-27.72 23.22 21.47 14.8 50.55-12.082 63.76-24.768 12.17-52.2 9.85-79.035 9.65 6.739 11.01 13.079 16.07 23.919 22.74 50.424 31.13 93.738-2.55 119.788-46.76 23.58-40.01-4.62-85.88-41.02-105.8-84.537-41.74-202.485 9.04-220.357 104.03-17.825 94.74 65.511 157 148.708 175.52 55.899 12.43 97.629-.66 145.079-30.47 109.05-72.86 120.89-207.93 51.84-311.93a207.96 207.96 0 0 0-134.41-87.99c-11.61-2.06-35.658-.97-44.487-3.9-47.04-15.656-65.469-83.95-65.063-123.631a257.3 257.3 0 0 1 27.253-111.476c7.731-15.236 18.113-30.661 26.552-45.873 32.446-58.481 73.655-114.755 90.185-180.422 2.36-9.388 12.69-63.878 9.37-69.321-8.48 4.95-35.29 65.228-45.15 79.359-10.51 15.079-24.976 31.229-35.688 45.731-34.111 42.618-59.032 91.17-89.062 135.863-57.86 86.113-84.353 193.467-10.97 282.73-10.726 7.96-20.285 11.76-32.256 17.38-23.866 11.2-45.887 19.84-66.677 36.63-15.251-18.73-36.172-34.06-51.394-54.54-24.437-30.662-23.438-68.127-25.155-105.3-2.621-56.742 11.236-118.756 40.299-168.024 27.094-45.929 74.768-87.032 112.686-124.453 58.194-57.433 114.925-119.21 156.797-189.915 20.26-33.712 35.36-60.242 44.49-99.1 1.9-8.07.63-19.149 1.92-27.898"/><path fill="white" d="M1370.62 745.834c2.52 2.843-2.32 18.703-3.12 22.767-5.51 27.903-3.7 80.072 1.09 108.027 3.77 22.043 10.25 43.474 16.53 64.901 4.89 16.703 9.51 33.636 15.63 49.94 5.83 15.541 13.06 30.521 19.05 46.001 6.83 17.64 12.41 35.74 19.18 53.41 16.46 42.92 33.23 87.62 40.22 133.25 4.38 28.51 4.22 56.71 2.94 85.44-2.32 52.45-20.06 102.23-49.43 145.7-8.75 12.94-18.96 24.83-28 37.56-16.68 23.48-30.66 46.32-52.28 65.99-18.31 16.65-37.66 35.57-58.65 48.6-30.09 18.67-61.55 29.94-95.03 40.75-25.9 8.36-52.06 16.98-78.66 22.85-41.73 9.21-84.45 12.41-126.995 14.98-32.267 1.95-64.074 3.76-96.406 2.18-32.445-1.58-60.756-7.49-92.132-15.34-29.127-7.28-58.304-15.48-86.218-26.63-56.713-22.65-125.859-65.34-167.135-111.14-27.252-30.24-43.634-73.4-48.854-113.58-1.687-12.98-1.732-26.41-2.14-39.51-.521-16.76-.705-33.55.752-50.28 1.829-20.98 5.906-41.53 9.422-62.26 5.432-32.03 10.975-64.07 15.956-96.17 4.314-27.79 5.999-55.38 7.525-83.43.61-28.66-1.141-57.58-3.328-86.16-.29-3.796-2.927-13.297-.982-16.15.767.438 1.101.581 1.809 1.269 19.783 19.221 32.152 50.151 37.954 76.501 5.224 23.72 9.41 47.69 9.726 72.04.295 22.76-3.377 44.97-6.471 67.43l-7.717 59.45c-3.609 25.92-7.788 51.94-8.738 78.13-2.088 57.6 10.454 118.94 51.045 162.1 20.405 21.7 46.228 42.76 71.853 57.91 14.231 8.41 29.747 14.95 44.969 21.34a549.4 549.4 0 0 0 196.506 44.21c67.245 2.05 137.289 3.58 203.659-9.07 12.61-2.41 25.09-6.01 37.5-9.3 17.49-4.64 34.71-9.32 51.33-16.66 33.23-14.67 65-36.87 91.35-61.82 36.21-34.29 69.42-90.48 87.35-137.09 33.86-87.99 36.99-152.1 9.05-242.18-6.09-19.64-13.93-38.65-20.33-58.18-9.97-30.45-17.5-61.98-25.89-92.91-11.71-43.142-20.02-84.865-18.61-129.792.86-27.264 7-79.431 18.01-102.846 4.1-8.715 9.73-15.675 16.71-22.228"/></svg>